# xmcd CD database file generated by Grip 3.3.1
# 
# Track frame offsets:
#       150
#       18470
#       41185
#       61445
#       80912
#       105047
#       119640
#       141225
#       160060
#       178865
#       200100
#       228737
# 
# Disc length: 3196 seconds
# 
# Revision: 3
# Processed by: cddbd v1.5.2PL0 Copyright (c) Steve Scherf et al.
# Submitted via: Grip 3.3.1
# 
DISCID=b00c7a0c
DTITLE=Nicholas Gunn - Through the Great Smoky Mountains [A Musical Jour
DTITLE=ney]
DYEAR=2002
DGENRE=New Age
TTITLE0=Call of the Wild
TTITLE1=The Highest Point
TTITLE2=Cades Cove
TTITLE3=Chieftain's Song
TTITLE4=The Place of Blue Smoke 
TTITLE5=Azalea Sunrise
TTITLE6=Trail of Tears
TTITLE7=Awakening
TTITLE8=Ramsey Cascades
TTITLE9=Passage Through Ancient Relics
TTITLE10=Dance of Light
TTITLE11=DATA TRACK
EXTD=YEAR: 2002
EXTT0=
EXTT1=
EXTT2=
EXTT3=
EXTT4=
EXTT5=
EXTT6=
EXTT7=
EXTT8=
EXTT9=
EXTT10=
EXTT11=
PLAYORDER=
